<svg width="40" height="41" viewBox="0 0 40 41" fill="none" xmlns="http://www.w3.org/2000/svg">
<mask id="mask0_3311_7" style="mask-type:luminance" maskUnits="userSpaceOnUse" x="0" y="0" width="40" height="41">
<path d="M0 0H40V41H0V0Z" fill="white"/>
</mask>
<g mask="url(#mask0_3311_7)">
<path fill-rule="evenodd" clip-rule="evenodd" d="M13.715 0.51595C11.458 0.51595 9.29501 1.41195 7.69901 3.00795L6.7082e-06 10.7069V14.2309C6.7082e-06 16.7209 1.07001 18.961 2.77401 20.516C1.89888 21.3124 1.2 22.283 0.722271 23.3656C0.244541 24.4482 -0.00148113 25.6187 6.7082e-06 26.802V30.326L7.69901 38.0239C8.51218 38.8373 9.48182 39.4772 10.5493 39.9052C11.6168 40.3331 12.76 40.5402 13.9098 40.5138C15.0596 40.4875 16.1921 40.2283 17.2389 39.7518C18.2857 39.2754 19.225 38.5917 20 37.742C20.7751 38.5915 21.7145 39.2752 22.7612 39.7515C23.808 40.2279 24.9405 40.487 26.0902 40.5134C27.24 40.5398 28.3831 40.3327 29.4506 39.9049C30.5181 39.477 31.4878 38.8371 32.301 38.0239L40 30.326V26.802C40 24.312 38.93 22.072 37.226 20.516C38.101 19.7196 38.7998 18.7491 39.2775 17.6668C39.7553 16.5844 40.0014 15.4141 40 14.2309V10.7069L32.301 3.00695C31.4877 2.19384 30.518 1.55405 29.4504 1.12626C28.3829 0.698469 27.2397 0.491546 26.09 0.517998C24.9402 0.544449 23.8078 0.803726 22.7611 1.28016C21.7143 1.75659 20.7751 2.44029 20 3.28995C19.2037 2.41494 18.2332 1.71614 17.1508 1.23842C16.0684 0.760691 14.8981 0.514601 13.715 0.51595ZM25.759 20.516C25.663 20.4281 25.5689 20.3381 25.477 20.246L20 14.7699L14.523 20.247C14.4311 20.3391 14.3371 20.4291 14.241 20.517C14.337 20.604 14.431 20.6939 14.523 20.7859L20 26.2619L25.477 20.7859C25.569 20.6929 25.663 20.604 25.759 20.516ZM22.222 30.326V32.0079C22.2218 32.8116 22.4599 33.5973 22.9063 34.2656C23.3527 34.934 23.9872 35.4549 24.7297 35.7625C25.4722 36.0702 26.2892 36.1507 27.0774 35.994C27.8657 35.8372 28.5897 35.4502 29.158 34.882L35.556 28.485V26.802C35.5564 25.9981 35.3183 25.2121 34.8719 24.5436C34.4255 23.8751 33.7908 23.354 33.0481 23.0463C32.3055 22.7386 31.4882 22.6581 30.6998 22.8151C29.9114 22.972 29.1872 23.3593 28.619 23.9279L22.222 30.326ZM17.778 30.326L11.381 23.9279C10.8128 23.3594 10.0888 22.9721 9.30047 22.8151C8.51215 22.6582 7.69498 22.7385 6.95235 23.0461C6.20972 23.3537 5.57501 23.8746 5.12851 24.543C4.68201 25.2114 4.4438 25.9972 4.44401 26.801V28.485L10.841 34.882C11.4092 35.4505 12.1332 35.8378 12.9215 35.9948C13.7099 36.1517 14.527 36.0714 15.2697 35.7638C16.0123 35.4562 16.647 34.9353 17.0935 34.2669C17.54 33.5985 17.7782 32.8127 17.778 32.0089V30.326ZM17.778 9.02395V10.7069L11.381 17.104C10.8128 17.6725 10.0888 18.0598 9.30047 18.2168C8.51215 18.3737 7.69498 18.2934 6.95235 17.9858C6.20972 17.6782 5.57501 17.1573 5.12851 16.4889C4.68201 15.8205 4.4438 15.0347 4.44401 14.2309V12.5479L10.841 6.15095C11.4092 5.58238 12.1332 5.1951 12.9215 5.03813C13.7099 4.88116 14.527 4.96154 15.2697 5.2691C16.0123 5.57666 16.647 6.09759 17.0935 6.76597C17.54 7.43435 17.7782 8.22015 17.778 9.02395ZM28.619 17.104L22.222 10.7069V9.02395C22.222 8.22036 22.4603 7.43481 22.9067 6.76664C23.3532 6.09848 23.9877 5.5777 24.7302 5.27018C25.4726 4.96266 26.2895 4.8822 27.0777 5.03897C27.8658 5.19575 28.5898 5.58272 29.158 6.15095L35.556 12.5479V14.2309C35.5562 15.0347 35.318 15.8205 34.8715 16.4889C34.425 17.1573 33.7903 17.6782 33.0477 17.9858C32.305 18.2934 31.4879 18.3737 30.6995 18.2168C29.9112 18.0598 29.1872 17.6725 28.619 17.104Z" fill="#C7231A"/>
</g>
</svg>
